<?xml version="1.0" encoding="UTF-8" standalone="no"?>
<!-- Created with Inkscape (http://www.inkscape.org/) -->

<svg
   version="1.1"
   id="svg1"
   width="600"
   height="456.25967"
   viewBox="0 0 600 456.25968"
   sodipodi:docname="goal.svg"
   inkscape:version="1.4.2 (ebf0e940d0, 2025-05-08)"
   xmlns:inkscape="http://www.inkscape.org/namespaces/inkscape"
   xmlns:sodipodi="http://sodipodi.sourceforge.net/DTD/sodipodi-0.dtd"
   xmlns="http://www.w3.org/2000/svg"
   xmlns:svg="http://www.w3.org/2000/svg">
  <sodipodi:namedview
     id="namedview1"
     pagecolor="#ffffff"
     bordercolor="#000000"
     borderopacity="0.25"
     inkscape:showpageshadow="2"
     inkscape:pageopacity="0.0"
     inkscape:pagecheckerboard="0"
     inkscape:deskcolor="#d1d1d1"
     inkscape:zoom="1.160918"
     inkscape:cx="333.35687"
     inkscape:cy="227.83693"
     inkscape:window-width="1920"
     inkscape:window-height="1052"
     inkscape:window-x="0"
     inkscape:window-y="0"
     inkscape:window-maximized="1"
     inkscape:current-layer="svg1" />
  <defs
     id="defs1" />
  <g
     id="g1"
     transform="translate(-63.980013,-134.08351)">
    <g
       id="group-R5"
       transform="matrix(0.82421811,0,0,0.82421811,63.980013,134.08899)"
       style="stroke-width:1.21327">
      <path
         id="path27"
         d="m 2729.86,5433.25 c 1507.67,0 2729.86,-1222.2 2729.86,-2729.86 0,-505.07 -137.3,-978 -376.42,-1383.77 H 376.422 C 137.313,1725.39 0,2198.32 0,2703.39 0,4211.05 1222.2,5433.25 2729.86,5433.25"
         style="fill:#fcd5dd;fill-opacity:1;fill-rule:evenodd;stroke:none;stroke-width:1.21327"
         transform="matrix(0.13333333,0,0,-0.13333333,0,724.42667)" />
      <path
         id="path28"
         d="m 5368.32,2000.65 c -64.3,-241.83 -160.94,-470.46 -285.02,-681.03 H 376.422 C 226.918,1573.35 117.207,1853.3 55.9766,2150.98 l 67.3754,58.98 c 378.558,331.33 947.088,320.17 1312.338,-25.8 103.76,-98.25 243.54,-149.24 386.2,-140.83 142.66,8.4 275.49,75.44 366.98,185.23 151.41,181.66 378.15,283.32 614.5,275.49 236.35,-7.83 455.88,-124.25 594.96,-315.52 67.86,-93.33 171.86,-153.8 286.55,-166.55 114.67,-12.78 229.45,23.33 316.15,99.45 299.9,263.25 732.46,310.75 1082.32,118.85 112.29,-61.59 208.31,-143.61 284.97,-239.63"
         style="fill:#fabcc7;fill-opacity:1;fill-rule:evenodd;stroke:none;stroke-width:1.21327"
         transform="matrix(0.13333333,0,0,-0.13333333,0,724.42667)" />
      <path
         id="path29"
         d="M 930.715,1281.5 H 1279.45 V 4088.08 H 930.715 V 1281.5"
         style="fill:#ffffff;fill-opacity:1;fill-rule:evenodd;stroke:none;stroke-width:1.21327"
         transform="matrix(0.13333333,0,0,-0.13333333,0,724.42667)" />
      <path
         id="path30"
         d="m 1279.46,3124.27 v -658 c -25.93,83.84 -91.2,149.71 -174.8,176.41 -57.49,18.37 -118.668,16.59 -173.941,-3.63 v 681.23 l 348.741,-196.01"
         style="fill:#fde9ee;fill-opacity:1;fill-rule:evenodd;stroke:none;stroke-width:1.21327"
         transform="matrix(0.13333333,0,0,-0.13333333,0,724.42667)" />
      <path
         id="path31"
         d="m 1275.71,4848.68 c 279.96,-83.95 541,-405.05 641.84,-830 100.85,-424.94 11.92,-829.09 -200.46,-1029.88 l 15.3,-64.47 -231.58,-54.96 c -360.49,-85.55 -758.392,290.31 -888.724,839.5 -130.332,549.21 56.25,1063.77 416.744,1149.33 l 231.58,54.95 15.3,-64.47"
         style="fill:#93231e;fill-opacity:1;fill-rule:evenodd;stroke:none;stroke-width:1.21327"
         transform="matrix(0.13333333,0,0,-0.13333333,0,724.42667)" />
      <path
         id="path32"
         d="m 3867.22,3457.67 107.44,-63.83 c 108.99,-64.76 230.08,-106.52 355.8,-122.72 61.47,-7.92 123.81,-5.53 184.48,7.08 57.3,11.9 112.46,32.55 163.45,61.23 24.65,13.85 40.51,39.38 42.05,67.63 1.49,28.26 -11.56,55.32 -34.62,71.74 -39.03,27.79 -85.41,43.39 -133.32,44.84 -56.33,1.69 -111.37,17.23 -160.26,45.25 z m 0,862.17 107.44,63.83 c 108.99,64.77 230.08,106.53 355.8,122.73 61.47,7.91 123.81,5.52 184.48,-7.08 57.3,-11.91 112.46,-32.56 163.45,-61.23 24.65,-13.87 40.51,-39.38 42.05,-67.64 1.49,-28.25 -11.56,-55.32 -34.62,-71.73 -39.03,-27.79 -85.41,-43.4 -133.32,-44.84 -56.33,-1.68 -111.37,-17.24 -160.26,-45.25 l -525.02,111.21 v 0"
         style="fill:#93231e;fill-opacity:1;fill-rule:evenodd;stroke:none;stroke-width:1.21327"
         transform="matrix(0.13333333,0,0,-0.13333333,0,724.42667)" />
      <path
         id="path33"
         d="m 3779.53,3506.88 55.05,-255.29 284.28,-68.45 c 60.1,-14.47 86.15,-76.31 59.22,-140.58 -26.95,-64.26 -97.44,-108.31 -160.17,-100.13 l -370.83,70.8 -26.83,55.45 c -56.6,116.9 -54.67,263.38 5.31,405.65 41.68,29.16 101.25,43.44 153.97,32.55"
         style="fill:#1b1919;fill-opacity:1;fill-rule:evenodd;stroke:none;stroke-width:1.21327"
         transform="matrix(0.13333333,0,0,-0.13333333,0,724.42667)" />
      <path
         id="path34"
         d="m 4205.37,3191.32 -14.16,71.98 15.35,199.42 -212.4,-1.76 -9.44,-61.96 c -9.02,-58.94 -11.95,-118.66 -8.87,-178.2 h 11.22 96.75 l 17.7,-99.69 103.85,70.21"
         style="fill:#f15030;fill-opacity:1;fill-rule:evenodd;stroke:none;stroke-width:1.21327"
         transform="matrix(0.13333333,0,0,-0.13333333,0,724.42667)" />
      <path
         id="path35"
         d="m 3869.04,2604.25 -165.18,-559.01 -14.16,-119.79 -132.17,-468.52 153.4,-79.87 2.37,7.99 60.99,95.84 c 84.65,133.01 127.09,294.3 120.45,457.87 l 224.45,495.12 -250.15,170.37"
         style="fill:#1b1919;fill-opacity:1;fill-rule:evenodd;stroke:none;stroke-width:1.21327"
         transform="matrix(0.13333333,0,0,-0.13333333,0,724.42667)" />
      <path
         id="path36"
         d="m 4165.76,2316.6 89.82,-425.76 47.7,-55.92 c 83.63,-97.95 144.45,-217.77 177.03,-348.71 l -115.65,-109.15 -287.93,362.04 -35.39,90.5 -142.71,479.36 159.41,70.67 -56.25,75.36 158.15,79.65 10.6,-60.77 c 9.16,-52.4 7.46,-105.91 -4.78,-157.27"
         style="fill:#1b1919;fill-opacity:1;fill-rule:evenodd;stroke:none;stroke-width:1.21327"
         transform="matrix(0.13333333,0,0,-0.13333333,0,724.42667)" />
      <path
         id="path37"
         d="m 4220.68,3178.91 -11.8,67.27 -51.93,-9.44 c -118.42,-21.53 -222.72,-90.97 -288.26,-191.92 -65.57,-100.96 -86.57,-224.49 -58.07,-341.43 l 410.06,475.52"
         style="fill:#ffffff;fill-opacity:1;fill-rule:evenodd;stroke:none;stroke-width:1.21327"
         transform="matrix(0.13333333,0,0,-0.13333333,0,724.42667)" />
      <path
         id="path38"
         d="m 4228.16,3220.8 21.01,-154.92 c 17.68,-130.44 -1.4,-263.2 -55.13,-383.36 l 18.88,-202.45 -102.92,-78.5 c -40.34,-30.77 -91.49,-43.68 -141.61,-35.74 -50.07,7.93 -94.74,36.03 -123.59,77.76 -37.23,53.82 -60.37,116.1 -67.36,181.17 -30.75,286.53 166.64,547.57 450.72,596.04"
         style="fill:#2e2d2d;fill-opacity:1;fill-rule:evenodd;stroke:none;stroke-width:1.21327"
         transform="matrix(0.13333333,0,0,-0.13333333,0,724.42667)" />
      <path
         id="path39"
         d="m 3782.81,2779.35 c 13.34,74.37 41.89,144.2 82.75,205.64 86.11,-12.65 74.1,0.22 141.13,-47.75 -89.18,-5.65 -181.93,-46.99 -223.88,-157.89"
         style="fill:#1b1919;fill-opacity:1;fill-rule:evenodd;stroke:none;stroke-width:1.21327"
         transform="matrix(0.13333333,0,0,-0.13333333,0,724.42667)" />
      <path
         id="path40"
         d="m 4514.94,4098.45 c 348.98,-51.41 624.41,-124.24 785.37,-209.7 -160.96,-85.44 -436.39,-158.27 -785.37,-209.68 v 419.38"
         style="fill:#fbc907;fill-opacity:1;fill-rule:evenodd;stroke:none;stroke-width:1.21327"
         transform="matrix(0.13333333,0,0,-0.13333333,0,724.42667)" />
      <path
         id="path41"
         d="m 4562.16,3960.27 c 118.48,-17.54 212.01,-42.37 266.66,-71.52 -54.65,-29.13 -148.18,-53.97 -266.66,-71.5 v 143.02"
         style="fill:#ffffff;fill-opacity:1;fill-rule:evenodd;stroke:none;stroke-width:1.21327"
         transform="matrix(0.13333333,0,0,-0.13333333,0,724.42667)" />
      <path
         id="path42"
         d="m 4295.48,3642.14 h 266.68 v 493.24 h -266.68 v -493.24"
         style="fill:#2e2d2d;fill-opacity:1;fill-rule:evenodd;stroke:none;stroke-width:1.21327"
         transform="matrix(0.13333333,0,0,-0.13333333,0,724.42667)" />
      <path
         id="path43"
         d="m 3604,4332.43 c 292.44,0 563.89,-45.69 788.24,-123.8 v -639.74 c -224.35,-78.11 -495.8,-123.8 -788.24,-123.8 -586.08,0 -1087.79,183.51 -1295.2,443.66 207.41,260.17 709.12,443.68 1295.2,443.68"
         style="fill:#cc2c23;fill-opacity:1;fill-rule:evenodd;stroke:none;stroke-width:1.21327"
         transform="matrix(0.13333333,0,0,-0.13333333,0,724.42667)" />
      <path
         id="path44"
         d="m 3631.19,3501.69 117.09,-255.3 300.88,-68.44 c 63.63,-14.47 104.7,-76.33 93.37,-140.57 -11.34,-64.26 -71.11,-108.32 -135.84,-100.14 l -388.02,70.8 -40.32,55.45 c -84.98,116.9 -118.65,263.38 -93.22,405.64 34.61,29.17 90.7,43.45 146.06,32.56"
         style="fill:#2e2d2d;fill-opacity:1;fill-rule:evenodd;stroke:none;stroke-width:1.21327"
         transform="matrix(0.13333333,0,0,-0.13333333,0,724.42667)" />
      <path
         id="path45"
         d="m 3611.77,3532.36 15.04,-36.99 c -19.86,-54.37 -94.78,-61.06 -136.7,-37.16 0.08,15.71 0.76,31.44 3.11,47.72 28.08,23.68 73.63,35.27 118.55,26.43"
         style="fill:#ffffff;fill-opacity:1;fill-rule:evenodd;stroke:none;stroke-width:1.21327"
         transform="matrix(0.13333333,0,0,-0.13333333,0,724.42667)" />
      <path
         id="path46"
         d="m 3546.66,3699.73 10.97,29.96 c 7.17,19.54 -17.99,41.3 -34.65,31.46 l -3.2,3.94 c -6.35,7.77 -15.84,11.24 -25.06,9.14 -9.22,-2.09 -16.81,-9.44 -20.04,-19.37 -14.53,-2.42 -28.28,-18.36 -27.97,-39.74 l 0.26,-18.72 c 0.13,-8.61 1.85,-15.98 5.56,-23.53 l 12.04,-24.55 -24.24,19.13 -4.44,19.72 c -2.22,9.82 -10.31,16.5 -19.31,16.01 -9.03,-0.51 -16.51,-8.08 -17.89,-18.1 l 9.8,-34.14 c 2.31,-8.34 6.82,-15.71 12.91,-21.12 l 37.85,-29.86 45.8,-57.87 -2.13,-45.4 c 29.11,-27.93 85.55,-16.1 104.99,17.89 l -0.75,16.79 12.52,11.08 c 11.37,10.08 18.3,25.18 19.07,41.42 1.26,28.05 0.8,44.9 19.98,62.99 19.8,18.66 -7.93,51.01 -40.18,20.79 -8.18,-9.66 -6,-12.55 -9.79,-25.18 l -13.98,-10.71 -30.27,24.92 -17.85,43.05"
         style="fill:#f15030;fill-opacity:1;fill-rule:evenodd;stroke:none;stroke-width:1.21327"
         transform="matrix(0.13333333,0,0,-0.13333333,0,724.42667)" />
      <path
         id="path47"
         d="m 3989.41,3429.97 -5.94,41.63 c -3.06,21.32 6,42.54 23.54,55.07 17.5,12.53 40.52,14.27 59.7,4.49 l 129.79,-2.94 c 19.78,-0.46 36.31,-15.21 38.94,-34.82 l 6.49,-8.85 c 6.11,-8.31 8.48,-18.79 6.48,-28.91 -12.71,-65.83 -31.89,-130.25 -57.2,-192.34 l -18.3,12.99 c -21.06,14.93 -34.77,38.09 -37.76,63.71 l -19.47,33.04 -38.95,2.37 6.49,27.13 c 1.87,7.77 -0.16,15.95 -5.45,21.94 -5.27,5.99 -13.15,9.03 -21.08,8.15 l -67.28,-2.66"
         style="fill:#2e2d2d;fill-opacity:1;fill-rule:evenodd;stroke:none;stroke-width:1.21327"
         transform="matrix(0.13333333,0,0,-0.13333333,0,724.42667)" />
      <path
         id="path48"
         d="m 4126.6,3402.87 c 13.4,-1.5 21.95,-23.27 19.12,-48.65 -2.81,-25.38 -15.96,-44.74 -29.36,-43.26 -13.36,1.49 -21.91,23.28 -19.12,48.66 2.83,25.37 15.98,44.73 29.36,43.25"
         style="fill:#f15030;fill-opacity:1;fill-rule:evenodd;stroke:none;stroke-width:1.21327"
         transform="matrix(0.13333333,0,0,-0.13333333,0,724.42667)" />
      <path
         id="path49"
         d="m 3174.08,3642.14 c 135.84,0 246.62,110.79 246.62,246.62 0,135.84 -110.78,246.62 -246.62,246.62 -135.82,0 -246.6,-110.78 -246.6,-246.62 0,-135.83 110.78,-246.62 246.6,-246.62"
         style="fill:#fbc907;fill-opacity:1;fill-rule:evenodd;stroke:none;stroke-width:1.21327"
         transform="matrix(0.13333333,0,0,-0.13333333,0,724.42667)" />
      <path
         id="path50"
         d="m 3174.08,3730.56 c 87.13,0 158.2,71.07 158.2,158.2 0,87.13 -71.07,158.2 -158.2,158.2 -87.13,0 -158.21,-71.07 -158.21,-158.2 0,-87.13 71.08,-158.2 158.21,-158.2"
         style="fill:#3d1814;fill-opacity:1;fill-rule:evenodd;stroke:none;stroke-width:1.21327"
         transform="matrix(0.13333333,0,0,-0.13333333,0,724.42667)" />
      <path
         id="path51"
         d="m 3174.08,3860.96 c 52.65,0 95.58,34.73 95.58,77.32 0,42.59 -42.93,77.32 -95.58,77.32 -52.64,0 -95.57,-34.73 -95.57,-77.32 0,-42.59 42.93,-77.32 95.57,-77.32"
         style="fill:#4b1b15;fill-opacity:1;fill-rule:evenodd;stroke:none;stroke-width:1.21327"
         transform="matrix(0.13333333,0,0,-0.13333333,0,724.42667)" />
      <path
         id="path52"
         d="m 3912.69,3938.28 h 753.24 c 30.06,0 54.61,-24.57 54.61,-54.61 v 0 c 0,-30.02 -24.55,-54.59 -54.61,-54.59 h -753.24 c -30.04,0 -54.61,24.57 -54.61,54.59 v 0 c 0,30.04 24.57,54.61 54.61,54.61"
         style="fill:#93231e;fill-opacity:1;fill-rule:evenodd;stroke:none;stroke-width:1.21327"
         transform="matrix(0.13333333,0,0,-0.13333333,0,724.42667)" />
      <path
         id="path53"
         d="m 1260.41,4913.15 c 360.5,85.56 758.39,-290.31 888.73,-839.51 130.33,-549.2 -56.25,-1063.76 -416.75,-1149.31 -360.5,-85.55 -758.39,290.31 -888.73,839.5 -130.332,549.21 56.258,1063.77 416.75,1149.32"
         style="fill:#cc2c23;fill-opacity:1;fill-rule:evenodd;stroke:none;stroke-width:1.21327"
         transform="matrix(0.13333333,0,0,-0.13333333,0,724.42667)" />
      <path
         id="path54"
         d="m 1435.16,4176.82 c -93.56,-22.21 -141.99,-155.75 -108.16,-298.28 33.82,-142.54 137.08,-240.08 230.65,-217.88 93.56,22.2 141.98,155.75 108.15,298.28 -33.82,142.54 -137.09,240.09 -230.64,217.88 z m -43.7,184.09 c -160.29,-38.05 -243.25,-266.85 -185.3,-511.05 57.96,-244.2 234.88,-411.33 395.17,-373.28 160.3,38.03 243.26,266.84 185.31,511.04 -57.95,244.19 -234.88,411.32 -395.18,373.29 z m -43.68,184.07 c -227.02,-53.87 -344.52,-377.93 -262.45,-723.8 82.08,-345.86 332.66,-582.56 559.69,-528.69 227.02,53.88 344.53,377.93 262.45,723.81 -82.07,345.86 -332.66,582.56 -559.69,528.68 z m -43.68,184.09 c 293.76,69.71 618,-236.57 724.21,-684.1 106.2,-447.53 -45.84,-866.85 -339.6,-936.56 -293.76,-69.72 -618.01,236.56 -724.218,684.1 -106.199,447.54 45.848,866.85 339.608,936.56 v 0"
         style="fill:#ffffff;fill-opacity:1;fill-rule:evenodd;stroke:none;stroke-width:1.21327"
         transform="matrix(0.13333333,0,0,-0.13333333,0,724.42667)" />
      <path
         id="path55"
         d="m 3557.53,1456.93 -24.68,-4.92 h -115.06 c -8.46,0 -16.31,-4.45 -20.65,-11.69 -4.35,-7.26 -4.59,-16.25 -0.6,-23.72 12.91,-24.18 29.41,-46.27 48.98,-65.48 33.85,-33.27 83.24,-45.28 128.62,-31.27 16.87,5.2 35.23,1.18 48.37,-10.62 21.25,-19.09 52.93,-20.81 76.12,-4.14 l 3.53,25.97 8.77,46 -89.02,86.16 -64.38,-6.29"
         style="fill:#1b1919;fill-opacity:1;fill-rule:evenodd;stroke:none;stroke-width:1.21327"
         transform="matrix(0.13333333,0,0,-0.13333333,0,724.42667)" />
      <path
         id="path56"
         d="m 4297.38,1443.44 -7.74,-23.97 -0.86,-1.53 -61.05,-47.71 c -8.34,-1.26 -15.43,-6.82 -18.65,-14.63 -3.25,-7.82 -2.13,-16.76 2.93,-23.54 16.34,-22.01 35.97,-41.38 123.16,-38.01 45.55,13.36 80.1,50.63 89.98,97.05 3.69,17.26 16.17,31.34 32.85,37.07 27.03,9.25 44.01,36.06 40.75,64.43 l -20.96,15.75 -35.9,30.09 -118.59,-35.71 -25.92,-59.29"
         style="fill:#1b1919;fill-opacity:1;fill-rule:evenodd;stroke:none;stroke-width:1.21327"
         transform="matrix(0.13333333,0,0,-0.13333333,0,724.42667)" />
    </g>
  </g>
</svg>
